<?xml version="1.0" ?><!DOCTYPE svg  PUBLIC '-//W3C//DTD SVG 1.1//EN'  'http://www.w3.org/Graphics/SVG/1.1/DTD/svg11.dtd'><svg enable-background="new 0 0 512 512" id="Layer_1" version="1.1" viewBox="0 0 512 512" xml:space="preserve" xmlns="http://www.w3.org/2000/svg" xmlns:xlink="http://www.w3.org/1999/xlink"><g><path fill="#BBBBCC" d="M7,415.8C7,309.3,7,203.5,7,97c1.9,0,3.7,0,5.4,0c47.5,0,95,0,142.4,0c15.3,0,30.2,2,44.7,6.8   c31.5,10.5,51.2,36.3,52.1,69.5c0.3,9.4-0.4,19-2.2,28.3c-3.5,17.6-14,30.6-29.3,39.7c-1.7,1-3.4,2-5.5,3.3   c3.6,1.7,6.7,3.2,9.8,4.8c20.3,11,31.8,28.4,35.8,50.8c4.4,24.3,1.3,47.4-11.3,69c-14.6,25.1-36.6,39.6-65.2,43.6   c-12.7,1.8-25.5,2.8-38.3,2.9c-44,0.3-88,0.1-131.9,0.1C11.5,415.8,9.6,415.8,7,415.8z M78.8,359.8c26.7,0,52.9,0.5,79-0.2   c12.7-0.4,24.1-5.3,31.5-16.6c7.5-11.6,8.2-24.5,6.2-37.6c-1.6-10.5-7.1-19.1-17-23.2c-7.5-3.1-15.8-5.7-23.9-6   c-24.3-0.9-48.6-0.5-72.9-0.6c-0.9,0-1.9,0.4-2.8,0.6C78.8,304.2,78.8,332,78.8,359.8z M78.9,222.5c1.5,0.1,2.6,0.3,3.8,0.3   c21.5,0,42.9,0.3,64.4-0.2c7.4-0.2,14.9-1.7,22-3.8c9.9-3,17.6-9.3,19.5-20c1.2-6.8,1.4-13.9,0.5-20.7c-1.5-12-8.8-19.5-20.7-22   c-6.3-1.3-12.8-2.8-19.2-3c-21.8-0.6-43.6-0.5-65.4-0.9c-4.2-0.1-5.3,1.2-5.3,5.3c0.2,20,0.1,39.9,0.1,59.9   C78.6,219.1,78.8,220.7,78.9,222.5z"/><path fill="#BBBBCC" d="M345.5,308.6c-0.3,32.6,18.4,54.1,48.6,56.3c14.1,1,27.8-0.4,38.9-10.6c3.9-3.6,6.7-8.2,10.1-12.2c1.1-1.2,2.7-2.9,4-2.9   c18.8-0.2,37.6-0.1,56.9-0.1c-0.7,9.1-4,16.8-8.4,24c-18.3,29.9-45.4,46-80,49.8c-22.6,2.5-44.6,0.1-65.6-9   c-36.1-15.5-57-42.5-62-81.7c-3.5-27.8-3-55.3,6.3-81.9c11.3-32.4,33.9-53.7,66.6-63.7c27.3-8.3,54.7-7.2,81.4,2.8   c33.2,12.5,51.4,38.2,60.5,71.3c4.9,17.7,4.6,35.9,4.7,54.1c0,3.8-2.1,3.8-4.8,3.8c-21.5,0-43,0-64.5,0c-28.8,0-57.7,0-86.5,0   C349.8,308.6,347.8,308.6,345.5,308.6z M446.4,268.8c-1.6-30.7-21.8-48.6-52.7-48c-31.5,0.6-45.3,26.8-46.7,48   C380,268.8,413.1,268.8,446.4,268.8z"/><path fill="#BBBBCC" d="M333.8,142c0-10.4,0-20.6,0-31.2c41.7,0,83,0,124.8,0c0,10.4,0,20.7,0,31.2C416.9,142,375.5,142,333.8,142z"/></g></svg>