<?xml version="1.0" ?><!DOCTYPE svg  PUBLIC '-//W3C//DTD SVG 1.1//EN'  'http://www.w3.org/Graphics/SVG/1.1/DTD/svg11.dtd'><svg enable-background="new 0 0 512 512" id="Layer_1" version="1.1" viewBox="0 0 512 512" xml:space="preserve" xmlns="http://www.w3.org/2000/svg" xmlns:xlink="http://www.w3.org/1999/xlink"><g><path fill="#BBBBCC" d="M255.8,13.3c135.4,0,245.3,109.7,245.4,245.2c0.1,136.2-109.6,245.8-245.8,245.7C119.8,504.1,10.2,394.4,10.3,258.9   C10.3,123.1,120,13.4,255.8,13.3z M126.6,423.5c1,1.1,1.3,1.5,1.7,1.8c0.6,0.5,1.3,1,2,1.5c36,26.6,76.4,40.6,121.2,41.6   c28.2,0.7,55.3-4.5,81.5-14.6c3.4-1.3,4.7-3,3.8-6.7c-1.4-5.7-2.2-11.4-3.4-17.1c-7.9-37.8-18.4-74.9-31.1-111.4   c-3-8.6-6.2-17.1-9.5-26.2C222.4,317.9,164.8,358.1,126.6,423.5z M47,251.1c-7.8,39.7,25.3,129.8,52.9,146.6   c43.9-66.4,100.9-115.9,178.8-140.2c-5.5-11.3-10.7-22.2-16.2-32.9c-0.5-1.1-3.7-1.5-5.3-1.1c-10.5,2.5-20.9,5.6-31.4,8.1   C180,242.5,133.6,249.1,86.6,251C73.4,251.6,60.2,251.1,47,251.1z M51.5,214.9c23.6,5.7,174-14.5,192.1-25.9   c-23.5-41.3-49.2-81.2-77.1-119.6C102.8,97.5,59.1,162.9,51.5,214.9z M393.9,101.2c-31-26.9-66.7-43.7-107.4-49.8   c-26.7-3.9-53.1-2.8-80.1,3.6c29.2,39.6,55,80.1,78.2,122C326,163.2,374.9,130.6,393.9,101.2z M465.4,256.1   c-1-48.9-16.8-92-47.5-130.4c-15.5,19.4-33.5,35-53.3,48.7c-19.9,13.7-41.2,24.7-63.3,34.1c5.8,13.2,11.3,25.8,17.1,38.3   c0.6,1.3,3,2.7,4.3,2.6c34.8-3.9,69.5-2.9,104.2,1.2C439.4,252.2,451.8,254.2,465.4,256.1z M372.8,431.9   c38-16.6,87.9-94.6,89.6-140c-42.5-12.5-85.7-15.1-130.3-9.1C349.6,331.9,363.6,381.3,372.8,431.9z"/></g></svg>